<svg width="1091" height="454" viewBox="0 0 1091 454" fill="none" xmlns="http://www.w3.org/2000/svg">
<path d="M14.8413 412.163H2.5V454H1076.5V1H1054.25C1023.76 1 994.945 14.9055 975.973 38.768L972.027 43.7321C953.055 67.5945 924.235 81.5 893.75 81.5H833.831C796.725 81.5 762.67 102.046 745.368 134.87L714.132 194.13C696.83 226.954 662.775 247.5 625.669 247.5H584.402C547.444 247.5 514.642 271.174 503 306.25C491.358 341.326 458.556 365 421.598 365H373.054C354.217 365 335.912 358.757 321 347.248C306.088 335.739 287.783 329.496 268.946 329.496H180.159C153.497 329.496 127.939 340.143 109.162 359.072L85.8377 382.586C67.0613 401.515 41.5033 412.163 14.8413 412.163Z" fill="url(#paint0_radial)"/>
<path d="M0.5 412.163H14.8413C41.5033 412.163 67.0613 401.515 85.8377 382.586L109.162 359.072C127.939 340.143 153.497 329.496 180.159 329.496H268.946C287.783 329.496 306.088 335.739 321 347.248V347.248C335.912 358.757 354.217 365 373.054 365H422.127C458.569 365 490.711 341.134 501.25 306.25V306.25C511.789 271.366 543.931 247.5 580.373 247.5H627.779C665.613 247.5 700.208 226.148 717.168 192.328L745.832 135.172C762.792 101.352 797.387 80 835.221 80H895.912C925.159 80 952.94 67.1961 971.939 44.9602L979.561 36.0398C998.56 13.8039 1026.34 1 1055.59 1H1070" stroke="url(#paint1_linear)" stroke-width="2"/>
<path opacity="0.5" d="M0 412.5L1090.5 412.5" stroke="url(#paint2_linear)" stroke-dasharray="2 2"/>
<line opacity="0.5" x1="409.5" y1="247.5" x2="1090.5" y2="247.5" stroke="url(#paint3_linear)" stroke-dasharray="2 2"/>
<line opacity="0.5" x1="555.5" y1="80.5" x2="1090.5" y2="80.5" stroke="url(#paint4_linear)" stroke-dasharray="2 2"/>
<line x1="645.5" y1="247.5" x2="841.5" y2="247.5" stroke="#22C128" stroke-dasharray="2 2"/>
<line x1="815.5" y1="242" x2="815.5" y2="91" stroke="#17AA1D" stroke-width="2" stroke-linecap="round" stroke-linejoin="round"/>
<circle cx="815.5" cy="83" r="8" fill="white" stroke="#17AA1D" stroke-width="2"/>
<circle cx="815.5" cy="248" r="8" fill="white" stroke="#17AA1D" stroke-width="2"/>
<path d="M875.788 167.474H872.33V164.978H875.788V161.52H878.284V164.978H881.716V167.474H878.284V170.906H875.788V167.474ZM889.094 160.714L885.74 162.612V158.868L889.588 156.658H893.306V174H889.094V160.714ZM905.077 174.338C902.494 174.338 900.588 173.601 899.357 172.128C898.144 170.637 897.537 168.375 897.537 165.342C897.537 162.309 898.144 160.055 899.357 158.582C900.588 157.091 902.494 156.346 905.077 156.346C907.66 156.346 909.566 157.091 910.797 158.582C912.028 160.055 912.643 162.309 912.643 165.342C912.643 168.375 912.028 170.637 910.797 172.128C909.566 173.601 907.66 174.338 905.077 174.338ZM905.077 170.932C906.065 170.932 906.854 170.551 907.443 169.788C908.05 169.025 908.353 167.543 908.353 165.342C908.353 163.158 908.05 161.685 907.443 160.922C906.854 160.142 906.065 159.752 905.077 159.752C904.106 159.752 903.318 160.142 902.711 160.922C902.122 161.685 901.827 163.158 901.827 165.342C901.827 167.543 902.122 169.025 902.711 169.788C903.318 170.551 904.106 170.932 905.077 170.932ZM918.675 165.914C917.185 165.914 916.093 165.524 915.399 164.744C914.723 163.947 914.385 162.742 914.385 161.13C914.385 159.535 914.723 158.339 915.399 157.542C916.093 156.745 917.185 156.346 918.675 156.346C920.166 156.346 921.249 156.745 921.925 157.542C922.619 158.322 922.965 159.518 922.965 161.13C922.965 162.742 922.619 163.947 921.925 164.744C921.249 165.524 920.166 165.914 918.675 165.914ZM918.675 163.704C919.681 163.704 920.183 162.846 920.183 161.13C920.183 159.414 919.681 158.556 918.675 158.556C918.259 158.556 917.895 158.747 917.583 159.128C917.289 159.492 917.141 160.159 917.141 161.13C917.141 162.101 917.289 162.777 917.583 163.158C917.895 163.522 918.259 163.704 918.675 163.704ZM930.167 174.286C928.677 174.286 927.585 173.896 926.891 173.116C926.215 172.319 925.877 171.114 925.877 169.502C925.877 167.907 926.215 166.711 926.891 165.914C927.585 165.117 928.677 164.718 930.167 164.718C931.658 164.718 932.741 165.117 933.417 165.914C934.111 166.694 934.457 167.89 934.457 169.502C934.457 171.114 934.111 172.319 933.417 173.116C932.741 173.896 931.658 174.286 930.167 174.286ZM930.167 172.076C931.173 172.076 931.675 171.218 931.675 169.502C931.675 167.786 931.173 166.928 930.167 166.928C929.751 166.928 929.387 167.119 929.075 167.5C928.781 167.864 928.633 168.531 928.633 169.502C928.633 170.473 928.781 171.149 929.075 171.53C929.387 171.894 929.751 172.076 930.167 172.076ZM928.269 156.19H931.051L920.469 174.572H917.687L928.269 156.19Z" fill="#17AA1D"/>
<circle opacity="0.2" cx="847.5" cy="166" r="16" fill="#17AA1D"/>
<path d="M847.5 174.132V157" stroke="#17AA1D" stroke-width="2" stroke-linecap="round" stroke-linejoin="round"/>
<path d="M839.5 165.566L847.5 157L855.5 165.566" stroke="#17AA1D" stroke-width="2" stroke-linecap="round" stroke-linejoin="round"/>
<line x1="609.5" y1="407" x2="609.5" y2="256" stroke="#17AA1D" stroke-width="2" stroke-linecap="round" stroke-linejoin="round"/>
<circle cx="609.5" cy="248" r="8" fill="white" stroke="#17AA1D" stroke-width="2"/>
<circle cx="609.5" cy="413" r="8" fill="white" stroke="#17AA1D" stroke-width="2"/>
<path d="M669.788 332.474H666.33V329.978H669.788V326.52H672.284V329.978H675.716V332.474H672.284V335.906H669.788V332.474ZM683.094 325.714L679.74 327.612V323.868L683.588 321.658H687.306V339H683.094V325.714ZM699.077 339.338C696.494 339.338 694.588 338.601 693.357 337.128C692.144 335.637 691.537 333.375 691.537 330.342C691.537 327.309 692.144 325.055 693.357 323.582C694.588 322.091 696.494 321.346 699.077 321.346C701.66 321.346 703.566 322.091 704.797 323.582C706.028 325.055 706.643 327.309 706.643 330.342C706.643 333.375 706.028 335.637 704.797 337.128C703.566 338.601 701.66 339.338 699.077 339.338ZM699.077 335.932C700.065 335.932 700.854 335.551 701.443 334.788C702.05 334.025 702.353 332.543 702.353 330.342C702.353 328.158 702.05 326.685 701.443 325.922C700.854 325.142 700.065 324.752 699.077 324.752C698.106 324.752 697.318 325.142 696.711 325.922C696.122 326.685 695.827 328.158 695.827 330.342C695.827 332.543 696.122 334.025 696.711 334.788C697.318 335.551 698.106 335.932 699.077 335.932ZM712.675 330.914C711.185 330.914 710.093 330.524 709.399 329.744C708.723 328.947 708.385 327.742 708.385 326.13C708.385 324.535 708.723 323.339 709.399 322.542C710.093 321.745 711.185 321.346 712.675 321.346C714.166 321.346 715.249 321.745 715.925 322.542C716.619 323.322 716.965 324.518 716.965 326.13C716.965 327.742 716.619 328.947 715.925 329.744C715.249 330.524 714.166 330.914 712.675 330.914ZM712.675 328.704C713.681 328.704 714.183 327.846 714.183 326.13C714.183 324.414 713.681 323.556 712.675 323.556C712.259 323.556 711.895 323.747 711.583 324.128C711.289 324.492 711.141 325.159 711.141 326.13C711.141 327.101 711.289 327.777 711.583 328.158C711.895 328.522 712.259 328.704 712.675 328.704ZM724.167 339.286C722.677 339.286 721.585 338.896 720.891 338.116C720.215 337.319 719.877 336.114 719.877 334.502C719.877 332.907 720.215 331.711 720.891 330.914C721.585 330.117 722.677 329.718 724.167 329.718C725.658 329.718 726.741 330.117 727.417 330.914C728.111 331.694 728.457 332.89 728.457 334.502C728.457 336.114 728.111 337.319 727.417 338.116C726.741 338.896 725.658 339.286 724.167 339.286ZM724.167 337.076C725.173 337.076 725.675 336.218 725.675 334.502C725.675 332.786 725.173 331.928 724.167 331.928C723.751 331.928 723.387 332.119 723.075 332.5C722.781 332.864 722.633 333.531 722.633 334.502C722.633 335.473 722.781 336.149 723.075 336.53C723.387 336.894 723.751 337.076 724.167 337.076ZM722.269 321.19H725.051L714.469 339.572H711.687L722.269 321.19Z" fill="#17AA1D"/>
<circle opacity="0.2" cx="641.5" cy="331" r="16" fill="#17AA1D"/>
<path d="M641.5 340.132V323" stroke="#17AA1D" stroke-width="2" stroke-linecap="round" stroke-linejoin="round"/>
<path d="M633.5 331.566L641.5 323L649.5 331.566" stroke="#17AA1D" stroke-width="2" stroke-linecap="round" stroke-linejoin="round"/>
<path d="M974.298 432.244H970.932V429.994H980.634V432.244H977.214V442H974.298V432.244ZM982.252 429.58H985.024V431.65H982.252V429.58ZM982.306 433.018H984.988L985.006 442H982.306V433.018ZM997.771 432.64C999.043 432.64 999.985 432.892 1000.6 433.396C1001.21 433.888 1001.51 434.716 1001.51 435.88V442H998.833V436.42C998.833 435.376 998.245 434.854 997.069 434.854C996.577 434.854 996.163 434.968 995.827 435.196C995.851 435.484 995.863 435.712 995.863 435.88V442H993.181V436.42C993.181 435.376 992.593 434.854 991.417 434.854C990.937 434.854 990.493 434.956 990.085 435.16V442H987.403V433.666C987.871 433.414 988.585 433.18 989.545 432.964C990.505 432.748 991.363 432.64 992.119 432.64C993.331 432.64 994.225 432.856 994.801 433.288C995.269 433.084 995.761 432.928 996.277 432.82C996.805 432.7 997.303 432.64 997.771 432.64ZM1007.92 432.586C1010.77 432.586 1012.17 434.44 1012.14 438.148H1006.12C1006.35 439.408 1007.2 440.038 1008.66 440.038C1009.11 440.038 1009.54 439.978 1009.96 439.858C1010.39 439.726 1010.85 439.558 1011.33 439.354V441.658C1010.34 442.066 1009.24 442.27 1008.01 442.27C1007.09 442.27 1006.28 442.084 1005.58 441.712C1004.89 441.328 1004.35 440.782 1003.96 440.074C1003.58 439.366 1003.39 438.532 1003.39 437.572C1003.39 435.988 1003.78 434.764 1004.56 433.9C1005.35 433.024 1006.47 432.586 1007.92 432.586ZM1007.82 434.638C1006.86 434.638 1006.29 435.238 1006.11 436.438H1009.47C1009.39 435.79 1009.21 435.328 1008.95 435.052C1008.7 434.776 1008.32 434.638 1007.82 434.638Z" fill="#CEC7FF"/>
<path d="M1068.41 364.666L1068.41 369.148L1071 370.012L1071 372.766L1058.99 368.23L1058.99 365.044L1071 360.796L1071 363.784L1068.41 364.666ZM1066.27 365.386L1061.73 366.916L1066.27 368.428L1066.27 365.386ZM1061.64 348.999C1061.64 347.727 1061.89 346.785 1062.4 346.173C1062.89 345.561 1063.72 345.255 1064.88 345.255L1071 345.255L1071 347.937L1065.42 347.937C1064.38 347.937 1063.85 348.525 1063.85 349.701C1063.85 350.193 1063.97 350.607 1064.2 350.943C1064.48 350.919 1064.71 350.907 1064.88 350.907L1071 350.907L1071 353.589L1065.42 353.589C1064.38 353.589 1063.85 354.177 1063.85 355.353C1063.85 355.833 1063.96 356.277 1064.16 356.685L1071 356.685L1071 359.367L1062.67 359.367C1062.41 358.899 1062.18 358.185 1061.96 357.225C1061.75 356.265 1061.64 355.407 1061.64 354.651C1061.64 353.439 1061.86 352.545 1062.29 351.969C1062.08 351.501 1061.93 351.009 1061.82 350.493C1061.7 349.965 1061.64 349.467 1061.64 348.999ZM1071.27 338.774C1071.27 340.31 1070.86 341.462 1070.05 342.23C1069.23 342.998 1068.02 343.382 1066.41 343.382C1064.73 343.382 1063.51 343.004 1062.74 342.248C1061.97 341.48 1061.59 340.322 1061.59 338.774C1061.59 337.226 1061.98 336.062 1062.77 335.282C1063.55 334.502 1064.77 334.112 1066.41 334.112C1067.99 334.112 1069.2 334.514 1070.03 335.318C1070.86 336.122 1071.27 337.274 1071.27 338.774ZM1069.13 338.774C1069.13 338.114 1068.9 337.616 1068.44 337.28C1067.98 336.944 1067.3 336.776 1066.41 336.776C1065.44 336.776 1064.75 336.944 1064.34 337.28C1063.92 337.604 1063.71 338.102 1063.71 338.774C1063.71 339.47 1063.92 339.974 1064.34 340.286C1064.75 340.586 1065.44 340.736 1066.41 340.736C1067.33 340.736 1068.02 340.58 1068.46 340.268C1068.91 339.944 1069.13 339.446 1069.13 338.774ZM1071.27 327.977C1071.27 329.309 1070.96 330.359 1070.33 331.127C1069.71 331.883 1068.77 332.261 1067.53 332.261L1061.89 332.261L1061.89 329.579L1067.31 329.579C1067.89 329.579 1068.32 329.453 1068.61 329.201C1068.88 328.937 1069.02 328.523 1069.02 327.959C1069.02 327.395 1068.88 326.987 1068.61 326.735C1068.32 326.471 1067.89 326.339 1067.31 326.339L1061.89 326.339L1061.89 323.819L1067.53 323.819C1068.79 323.819 1069.73 324.185 1070.35 324.917C1070.96 325.637 1071.27 326.657 1071.27 327.977ZM1062.67 321.451C1062.41 320.983 1062.18 320.269 1061.96 319.309C1061.75 318.349 1061.64 317.491 1061.64 316.735C1061.64 315.451 1061.89 314.485 1062.4 313.837C1062.9 313.189 1063.73 312.865 1064.88 312.865L1071 312.865L1071 315.547L1065.42 315.547C1064.38 315.547 1063.85 316.135 1063.85 317.311C1063.85 317.575 1063.88 317.845 1063.94 318.121C1064 318.397 1064.08 318.613 1064.16 318.769L1071 318.769L1071 321.451L1062.67 321.451ZM1071.36 306.756C1071.36 307.8 1071.11 308.586 1070.62 309.114C1070.13 309.63 1069.42 309.888 1068.5 309.888L1063.94 309.888L1063.94 311.22L1061.89 311.22L1061.89 309.888L1059.39 309.888L1059.39 307.08L1061.89 307.08L1061.89 305.082L1063.94 305.082L1063.94 307.08L1068.16 307.08C1068.47 307.08 1068.7 307.014 1068.86 306.882C1069 306.75 1069.07 306.528 1069.07 306.216C1069.07 306.024 1069.04 305.826 1068.98 305.622C1068.91 305.418 1068.82 305.238 1068.7 305.082L1070.98 305.082C1071.23 305.538 1071.36 306.096 1071.36 306.756Z" fill="#CEC7FF"/>
<defs>
<radialGradient id="paint0_radial" cx="0" cy="0" r="1" gradientUnits="userSpaceOnUse" gradientTransform="translate(505.5 1) rotate(72.8215) scale(389.37 618.866)">
<stop stop-color="#5538F3" stop-opacity="0.21"/>
<stop offset="1" stop-color="#5538F3" stop-opacity="0"/>
</radialGradient>
<linearGradient id="paint1_linear" x1="1078.5" y1="0.999999" x2="0.5" y2="1" gradientUnits="userSpaceOnUse">
<stop stop-color="#03C2FF" stop-opacity="0"/>
<stop offset="0.111996" stop-color="#03C2FF"/>
<stop offset="0.40625" stop-color="#4353EA"/>
<stop offset="0.844361" stop-color="#503CE6"/>
<stop offset="1" stop-color="#503CE6" stop-opacity="0"/>
</linearGradient>
<linearGradient id="paint2_linear" x1="1071.5" y1="413" x2="-18.5001" y2="413" gradientUnits="userSpaceOnUse">
<stop stop-color="#503CE6" stop-opacity="0"/>
<stop offset="0.149508" stop-color="#503CE6"/>
<stop offset="0.79108" stop-color="#503CE6"/>
<stop offset="1" stop-color="#503CE6" stop-opacity="0"/>
</linearGradient>
<linearGradient id="paint3_linear" x1="1078.83" y1="248" x2="409.5" y2="248" gradientUnits="userSpaceOnUse">
<stop stop-color="#503CE6" stop-opacity="0"/>
<stop offset="0.149508" stop-color="#503CE6"/>
<stop offset="0.79108" stop-color="#503CE6"/>
<stop offset="1" stop-color="#503CE6" stop-opacity="0"/>
</linearGradient>
<linearGradient id="paint4_linear" x1="1081.33" y1="81" x2="555.5" y2="81" gradientUnits="userSpaceOnUse">
<stop stop-color="#503CE6" stop-opacity="0"/>
<stop offset="0.149508" stop-color="#503CE6"/>
<stop offset="0.79108" stop-color="#503CE6"/>
<stop offset="1" stop-color="#503CE6" stop-opacity="0"/>
</linearGradient>
</defs>
</svg>
